<?xml version="1.0" standalone="no"?>
<!DOCTYPE svg PUBLIC "-//W3C//DTD SVG 20010904//EN"
 "http://www.w3.org/TR/2001/REC-SVG-20010904/DTD/svg10.dtd">
<svg version="1.0" xmlns="http://www.w3.org/2000/svg"
 width="70.000000pt" height="70.000000pt" viewBox="0 0 70.000000 70.000000"
 preserveAspectRatio="xMidYMid meet">
<metadata>
Created by potrace 1.14, written by Peter Selinger 2001-2017
</metadata>
<g transform="translate(0.000000,70.000000) scale(0.100000,-0.100000)"
fill="#000000" stroke="none">
<path d="M302 605 c2 -35 7 -67 11 -71 15 -15 19 8 12 71 -9 86 -29 87 -23 0z"/>
<path d="M381 623 c-13 -47 -14 -63 -1 -63 9 0 30 61 30 88 0 27 -20 10 -29
-25z"/>
<path d="M462 597 c-30 -31 -41 -57 -24 -57 10 0 82 73 82 83 0 17 -29 4 -58
-26z"/>
<path d="M193 555 c-19 -13 -21 -22 -16 -69 9 -82 0 -102 -57 -131 -67 -34
-76 -53 -55 -116 24 -70 68 -119 109 -119 17 0 42 7 55 16 17 12 42 16 91 15
57 -1 80 3 139 30 73 33 88 51 75 91 -4 13 -7 33 -5 45 1 13 -1 28 -5 35 -5 7
-9 29 -10 49 -2 34 1 38 47 59 40 19 49 28 49 50 0 30 -16 50 -41 50 -9 0 -62
-22 -118 -50 -56 -27 -115 -50 -131 -50 -26 0 -31 5 -40 40 -6 21 -20 46 -33
55 -26 19 -28 19 -54 0z m57 -41 c6 -14 10 -43 10 -65 0 -39 15 -53 26 -24 4
9 19 15 39 15 18 0 78 21 136 49 57 27 110 46 116 44 33 -13 6 -37 -94 -86
-129 -63 -138 -73 -104 -127 26 -42 36 -129 17 -142 -22 -15 -101 -8 -133 12
-38 23 -42 35 -13 43 20 5 37 33 27 44 -3 3 -13 -2 -22 -11 -50 -49 -86 22
-59 115 11 36 14 71 10 106 -6 49 -4 53 14 53 13 0 24 -10 30 -26z m244 -128
c-6 -14 -67 -46 -89 -46 -8 0 -15 9 -15 20 0 15 12 26 43 39 43 19 71 13 61
-13z m-334 -66 c0 -32 28 -92 57 -122 l25 -26 -30 -16 c-17 -9 -38 -16 -46
-16 -29 0 -86 100 -86 151 0 18 42 48 68 49 6 0 12 -9 12 -20z m350 5 c0 -22
-74 -57 -89 -42 -17 17 -14 25 17 41 35 20 72 20 72 1z m5 -75 c0 -8 -17 -24
-38 -35 -33 -17 -39 -18 -47 -5 -7 11 -3 21 16 38 29 25 69 26 69 2z"/>
</g>
</svg>
